<svg xmlns="http://www.w3.org/2000/svg" viewBox="0 0 918 918"><defs><style>.cls-1{fill:#fff215;}.cls-2{fill:#fd5b10;}.cls-3{font-size:64.36px;font-family:ArialMT, Arial;}.cls-3,.cls-4{fill:#182085;}.cls-5{fill:none;stroke:#fff;stroke-width:10.96px;}.cls-6{fill:#fff;}</style></defs><g id="Layer_2" data-name="Layer 2"><g id="Layer_1-2" data-name="Layer 1"><path class="cls-1" d="M698.16,747.45a671.48,671.48,0,0,1,85.27,36.24A459,459,0,0,1,148,796.55a670.55,670.55,0,0,1,245.87-80.74h0a681,681,0,0,1,83.88-5.17q28.66,0,56.72,2.35A672.3,672.3,0,0,1,698.16,747.45Z"/><path class="cls-1" d="M166.76,685.08a673.83,673.83,0,0,1,673.41,29.71A456.83,456.83,0,0,0,918,459C918,205.5,712.5,0,459,0S0,205.5,0,459c0,94.29,43,196.45,91.71,269.36l30.84-105.78L122,623"/><path class="cls-2" d="M534.45,713a672.3,672.3,0,0,1,163.71,34.46,374.78,374.78,0,0,1-466.47,9.45,670.12,670.12,0,0,1,162.16-41.09h0a681,681,0,0,1,83.88-5.17Q506.4,710.64,534.45,713Z"/><path class="cls-2" d="M166.76,685.08A674.74,674.74,0,0,1,766,673.81,373,373,0,0,0,833.69,459C833.69,252.06,665.94,84.31,459,84.31S84.31,252.06,84.31,459A373,373,0,0,0,122,623Z"/><path class="cls-1" d="M477.73,710.64q28.66,0,56.72,2.35a266.64,266.64,0,0,1-140.6,2.82A681,681,0,0,1,477.73,710.64Z"/><path class="cls-1" d="M723.86,459a263.83,263.83,0,0,1-65.74,174.64A679,679,0,0,0,268,642.52,263.93,263.93,0,0,1,194.17,459C194.17,312.78,312.75,194.2,459,194.2S723.86,312.78,723.86,459Z"/><text class="cls-3" transform="translate(354.29 364.18)">Pilsner</text><path class="cls-4" d="M59.93,457.46v-85h42.59V456.6c0,21.84,11,32.21,27.9,32.21s27.89-9.94,27.89-31.13V372.49H200.9v83.89c0,48.87-27.89,70.27-70.92,70.27S59.93,504.81,59.93,457.46Z"/><path class="cls-5" d="M59.93,457.46v-85h42.59V456.6c0,21.84,11,32.21,27.9,32.21s27.89-9.94,27.89-31.13V372.49H200.9v83.89c0,48.87-27.89,70.27-70.92,70.27S59.93,504.81,59.93,457.46Z"/><path class="cls-4" d="M200.9,372.49v83.89c0,48.87-27.89,70.27-70.92,70.27s-70-21.84-70-69.19v-85h42.59V456.6c0,21.84,11,32.21,27.9,32.21s27.89-9.94,27.89-31.13V372.49H200.9m8.22-8.22h-59v93.41c0,15.42-6.44,22.91-19.67,22.91s-19.67-7.84-19.67-24V364.27h-59v93.19c0,25.35,7.23,45,21.49,58.35,13.49,12.65,32.59,19.06,56.78,19.06,24.36,0,43.6-6.39,57.19-19,14.56-13.52,22-33.53,22-59.49V364.27Z"/><path class="cls-4" d="M220.68,406.87h41.08v23.57c6.7-16,17.51-26.38,37-25.51v43.24h-3.46c-21.4,0-33.51,12.32-33.51,39.35v36.32H220.68Z"/><path class="cls-5" d="M220.68,406.87h41.08v23.57c6.7-16,17.51-26.38,37-25.51v43.24h-3.46c-21.4,0-33.51,12.32-33.51,39.35v36.32H220.68Z"/><path class="cls-4" d="M296.5,404.88c.73,0,1.47,0,2.23.05v43.24h-3.46c-21.4,0-33.51,12.32-33.51,39.35v36.32H220.68v-117h41.08v23.57c6.44-15.38,16.68-25.56,34.74-25.56m0-8.23c-10.35,0-19.21,2.88-26.52,8.6v-6.6H212.46V532.06H270V487.52c0-27.59,13.52-31.13,25.29-31.13H307V397.06l-7.85-.35c-.87,0-1.75-.06-2.6-.06Z"/><path class="cls-4" d="M402.18,508.27c-8,9.73-18.16,18.17-35.67,18.17-27.68,0-51.67-23.14-51.67-60.54v-.44c0-38,23.78-61.18,51.45-61.18,17.73,0,28.11,8,35.89,16.86V406.87h41.08V558.43H402.18Zm.65-42.81V465c0-15.35-10.59-26.38-23.78-26.38s-24,10.82-24,26.38v.43c0,15.57,10.81,26.6,24,26.6S402.83,481,402.83,465.46Z"/><path class="cls-5" d="M402.18,508.27c-8,9.73-18.16,18.17-35.67,18.17-27.68,0-51.67-23.14-51.67-60.54v-.44c0-38,23.78-61.18,51.45-61.18,17.73,0,28.11,8,35.89,16.86V406.87h41.08V558.43H402.18Zm.65-42.81V465c0-15.35-10.59-26.38-23.78-26.38s-24,10.82-24,26.38v.43c0,15.57,10.81,26.6,24,26.6S402.83,481,402.83,465.46Z"/><path class="cls-4" d="M366.29,404.28c17.73,0,28.11,8,35.89,16.86V406.87h41.08V558.43H402.18V508.27c-8,9.73-18.16,18.17-35.67,18.17-27.68,0-51.67-23.14-51.67-60.54v-.44c0-38,23.78-61.18,51.45-61.18m12.76,87.78c13.19,0,23.78-11,23.78-26.6V465c0-15.35-10.59-26.38-23.78-26.38s-24,10.82-24,26.38v.43c0,15.57,10.81,26.6,24,26.6m-12.76-96a56,56,0,0,0-42.24,19.07c-11.41,12.78-17.44,30.19-17.44,50.33v.44c0,19.86,6.08,37.09,17.59,49.81a56.48,56.48,0,0,0,42.31,18.95c11.62,0,20.48-3.21,27.45-7.69v39.69h57.52v-168H394v4.7a52.55,52.55,0,0,0-27.67-7.29Zm12.76,87.78c-9,0-15.78-7.9-15.78-18.38V465c0-10.52,6.64-18.15,15.78-18.15,8.87,0,15.56,7.8,15.56,18.15v.43c0,10.65-6.54,18.38-15.56,18.38Z"/><path class="cls-4" d="M461.75,483.41V406.87h41.08v63.35c0,12.76,6.7,19.68,16.64,19.68,9.73,0,17.08-6.92,17.08-19.68V406.87h41.08v117H536.55v-16c-7.56,9.73-18.37,18.6-35,18.6C476.66,526.44,461.75,510,461.75,483.41Z"/><path class="cls-5" d="M461.75,483.41V406.87h41.08v63.35c0,12.76,6.7,19.68,16.64,19.68,9.73,0,17.08-6.92,17.08-19.68V406.87h41.08v117H536.55v-16c-7.56,9.73-18.37,18.6-35,18.6C476.66,526.44,461.75,510,461.75,483.41Z"/><path class="cls-4" d="M577.63,406.87v117H536.55v-16c-7.56,9.73-18.37,18.6-35,18.6-24.87,0-39.78-16.44-39.78-43V406.87h41.08v63.35c0,12.76,6.7,19.68,16.64,19.68,9.73,0,17.08-6.92,17.08-19.68V406.87h41.08m8.23-8.22H528.33v71.57c0,9.47-4.81,11.46-8.86,11.46-2.08,0-8.42,0-8.42-11.46V398.65H453.53v84.76c0,15.18,4.4,28,12.73,37.05,8.55,9.29,20.74,14.2,35.27,14.2a47.94,47.94,0,0,0,26.8-7.91v5.31h57.53V398.65Z"/><path class="cls-4" d="M594.93,465.9v-.44c0-34.16,24.43-61.18,59-61.18,40.43,0,59,29.62,59,64,0,2.6,0,5.63-.22,8.44H634.49C637.74,489.46,647,496,659.79,496c9.73,0,17.51-3.68,25.94-11.89l22.71,18.81c-11.25,14.27-27.46,23.78-50.81,23.78C620.87,526.65,594.93,502.22,594.93,465.9Zm79.56-10.17c-1.51-13-9.08-21.18-20.32-21.18-10.81,0-18.16,8.43-20.33,21.18Z"/><path class="cls-5" d="M594.93,465.9v-.44c0-34.16,24.43-61.18,59-61.18,40.43,0,59,29.62,59,64,0,2.6,0,5.63-.22,8.44H634.49C637.74,489.46,647,496,659.79,496c9.73,0,17.51-3.68,25.94-11.89l22.71,18.81c-11.25,14.27-27.46,23.78-50.81,23.78C620.87,526.65,594.93,502.22,594.93,465.9Zm79.56-10.17c-1.51-13-9.08-21.18-20.32-21.18-10.81,0-18.16,8.43-20.33,21.18Z"/><path class="cls-4" d="M654,404.28c40.43,0,59,29.62,59,64,0,2.6,0,5.63-.22,8.44H634.49C637.74,489.46,647,496,659.79,496c9.73,0,17.51-3.68,25.94-11.89l22.71,18.81c-11.25,14.27-27.46,23.78-50.81,23.78-36.76,0-62.7-24.43-62.7-60.75v-.44c0-34.16,24.43-61.18,59-61.18m-20.11,51.45h40.65c-1.51-13-9.08-21.18-20.32-21.18-10.81,0-18.16,8.43-20.33,21.18M654,396.06c-38.34,0-67.25,29.83-67.25,69.4v.44c0,19.74,7.14,37.47,20.1,49.92,12.78,12.29,30.83,19,50.83,19,23.93,0,43.19-9,57.26-26.91l5-6.3-6.18-5.12-14-11.61h20.7l.59-7.59c.24-3.13.24-6.42.24-9.07,0-20-5.62-37.32-16.25-50.13-12-14.45-29.61-22.08-51-22.08Zm-8.4,51.45a10.16,10.16,0,0,1,8.62-4.74,10.38,10.38,0,0,1,9.11,4.74ZM649,484.93h22.15a23.29,23.29,0,0,1-11.39,2.8q-6.59,0-10.76-2.8Z"/><polygon class="cls-4" points="735.43 370.12 768.35 370.12 769.53 520.98 734.21 521.01 735.43 370.12"/><path class="cls-6" d="M764.27,374.23l1.12,142.64-27,0,1.14-142.66h24.77m8.16-8.22H731.35l-1.28,159.11,43.6,0L772.43,366Z"/><path class="cls-4" d="M772.43,366l1.24,159.07-43.6,0L731.35,366h41.08m8.16-8.22h-57.4l-.06,8.15-1.28,159.11-.07,8.3h8.3l43.6,0H782l-.07-8.28-1.24-159.08-.06-8.15Z"/><polygon class="cls-4" points="822.28 521.17 795.37 369.94 827.43 369.94 854.34 521.17 822.28 521.17"/><path class="cls-6" d="M824,374.05l25.45,143H825.72l-25.44-143H824m6.88-8.22H790.46l28.38,159.45h40.41L830.87,365.83Z"/><path class="cls-4" d="M830.87,365.83l28.38,159.45H818.84L790.46,365.83h40.41m6.89-8.22H780.65l1.72,9.66,28.37,159.45L812,533.5h57.11l-1.72-9.66L839,364.39l-1.21-6.78Z"/></g></g></svg>